<svg width="800" height="450" xmlns="http://www.w3.org/2000/svg">
    <style>
        .orbit { fill: none; stroke: #30363d; stroke-width: 1; opacity: 0.5; }
        .planet { filter: drop-shadow(0 0 5px rgba(255,255,255,0.3)); }
        .text { font-family: 'Courier New', monospace; fill: #8b949e; font-size: 10px; }
        .title { font-family: sans-serif; fill: white; font-weight: bold; font-size: 24px; letter-spacing: 4px; }
        .hud-line { stroke: #00ffff; stroke-width: 1; opacity: 0.3; }
        
        /* ANIMATIONS */
        @keyframes pulse { 0% { r: 25; opacity: 0.8; } 50% { r: 30; opacity: 0.4; } 100% { r: 25; opacity: 0.8; } }
        .sun { animation: pulse 4s infinite; }
    </style>
    
    <rect width="100%" height="100%" fill="#0d1117" />
    
    <line x1="50" y1="50" x2="50" y2="400" class="hud-line" />
    <line x1="50" y1="400" x2="750" y2="400" class="hud-line" />
    <text x="60" y="390" class="text">SYS_TIME: 2026.01.21 :: 0102</text>
    <text x="60" y="375" class="text">SECTOR: N_BHARATH_PRIME</text>
    
    <circle cx="400" cy="225" r="25" fill="url(#grad1)" class="sun" />
    <defs>
        <radialGradient id="grad1" cx="50%" cy="50%" r="50%" fx="50%" fy="50%">
            <stop offset="0%" style="stop-color:white;stop-opacity:1" />
            <stop offset="100%" style="stop-color:#00ffff;stop-opacity:1" />
        </radialGradient>
    </defs>
    <circle cx="400" cy="225" r="150.0" class="orbit" />
<circle cx="477.81480630092835" cy="353.23749810546445" r="50" fill="#f1e05a" class="planet" />
<text x="492.81480630092835" y="358.23749810546445" class="text" fill="white">REDSHIFT</text>
<circle cx="400" cy="225" r="240.0" class="orbit" />
<circle cx="634.1059980199946" cy="172.13808846567983" r="50" fill="#e34c26" class="planet" />
<text x="649.1059980199946" y="177.13808846567983" class="text" fill="white">CIRCLE-13</text>
<circle cx="400" cy="225" r="330.0" class="orbit" />
<circle cx="70.88776064626461" cy="249.18954128481147" r="50" fill="#e34c26" class="planet" />
<text x="85.88776064626461" y="254.18954128481147" class="text" fill="white">ALVRYN-AI</text>
<circle cx="400" cy="225" r="376.3875" class="orbit" />
<circle cx="168.89838439620198" cy="-72.08516190069872" r="20.925" fill="#2b7489" class="planet" />
<text x="183.89838439620198" y="-67.08516190069872" class="text" fill="white">DSATM-EXAM-SYSTEM-</text>
<circle cx="400" cy="225" r="418.62" class="orbit" />
<circle cx="685.8588129361061" cy="-80.82256860271167" r="18.155" fill="#e34c26" class="planet" />
<text x="700.8588129361061" y="-75.82256860271167" class="text" fill="white">WEBSITE-EQUDATOR-TRADING-PLATFORM</text>
<circle cx="400" cy="225" r="449.4525" class="orbit" />
<circle cx="810.4063537604488" cy="41.76743043524354" r="10.555" fill="#8b949e" class="planet" />
<text x="825.4063537604488" y="46.76743043524354" class="text" fill="white">FLASK</text>
<circle cx="400" cy="225" r="479.88599999999997" class="orbit" />
<circle cx="664.0343526237295" cy="625.7198942285845" r="10.289" fill="#8b949e" class="planet" />
<text x="679.0343526237295" y="630.7198942285845" class="text" fill="white">NBHARATH1306</text>
<circle cx="400" cy="225" r="510.159" class="orbit" />
<circle cx="51.57751928641716" cy="597.6445762578505" r="10.182" fill="#8b949e" class="planet" />
<text x="66.57751928641716" y="602.6445762578505" class="text" fill="white">HCF-INTERNSHIP</text>
<circle cx="400" cy="225" r="539.028" class="orbit" />
<circle cx="-137.70282499867108" cy="262.77375772210894" r="9.246" fill="#8b949e" class="planet" />
<circle cx="400" cy="225" r="561.528" class="orbit" />
<circle cx="867.9217430868098" cy="-85.423802454969" r="5" fill="#2b7489" class="planet" />

    <text x="400" y="40" text-anchor="middle" class="title">SYSTEM SINGULARITY</text>
    </svg>