<svg width="800" height="450" xmlns="http://www.w3.org/2000/svg">
    <style>
        .orbit { fill: none; stroke: #30363d; stroke-width: 1; opacity: 0.5; }
        .planet { filter: drop-shadow(0 0 5px rgba(255,255,255,0.3)); }
        .text { font-family: 'Courier New', monospace; fill: #8b949e; font-size: 10px; }
        .title { font-family: sans-serif; fill: white; font-weight: bold; font-size: 24px; letter-spacing: 4px; }
        .hud-line { stroke: #00ffff; stroke-width: 1; opacity: 0.3; }
        
        /* ANIMATIONS */
        @keyframes pulse { 0% { r: 25; opacity: 0.8; } 50% { r: 30; opacity: 0.4; } 100% { r: 25; opacity: 0.8; } }
        .sun { animation: pulse 4s infinite; }
    </style>
    
    <rect width="100%" height="100%" fill="#0d1117" />
    
    <line x1="50" y1="50" x2="50" y2="400" class="hud-line" />
    <line x1="50" y1="400" x2="750" y2="400" class="hud-line" />
    <text x="60" y="390" class="text">SYS_TIME: 2026.01.31 :: 0108</text>
    <text x="60" y="375" class="text">SECTOR: N_BHARATH_PRIME</text>
    
    <circle cx="400" cy="225" r="25" fill="url(#grad1)" class="sun" />
    <defs>
        <radialGradient id="grad1" cx="50%" cy="50%" r="50%" fx="50%" fy="50%">
            <stop offset="0%" style="stop-color:white;stop-opacity:1" />
            <stop offset="100%" style="stop-color:#00ffff;stop-opacity:1" />
        </radialGradient>
    </defs>
    <circle cx="400" cy="225" r="150.0" class="orbit" />
<circle cx="509.59926050920967" cy="122.58905285159018" r="50" fill="#f1e05a" class="planet" />
<text x="524.5992605092097" y="127.58905285159018" class="text" fill="white">REDSHIFT</text>
<circle cx="400" cy="225" r="240.0" class="orbit" />
<circle cx="297.2729349785608" cy="8.096449747633244" r="50" fill="#e34c26" class="planet" />
<text x="312.2729349785608" y="13.096449747633244" class="text" fill="white">CIRCLE-13</text>
<circle cx="400" cy="225" r="330.0" class="orbit" />
<circle cx="565.290975338562" cy="510.62019093829286" r="50" fill="#e34c26" class="planet" />
<text x="580.290975338562" y="515.6201909382928" class="text" fill="white">ALVRYN-AI</text>
<circle cx="400" cy="225" r="415.422" class="orbit" />
<circle cx="276.4868441888294" cy="-171.6357755240512" r="46.948" fill="#f1e05a" class="planet" />
<text x="291.4868441888294" y="-166.6357755240512" class="text" fill="white">DRIFT-CIRCLE13</text>
<circle cx="400" cy="225" r="461.8095" class="orbit" />
<circle cx="816.3657395593069" cy="424.76882942912147" r="20.925" fill="#2b7489" class="planet" />
<text x="831.3657395593069" y="429.76882942912147" class="text" fill="white">DSATM-EXAM-SYSTEM-</text>
<circle cx="400" cy="225" r="504.8025" class="orbit" />
<circle cx="619.5806913811293" cy="-229.54359964566135" r="18.662" fill="#8b949e" class="planet" />
<text x="634.5806913811293" y="-224.54359964566135" class="text" fill="white">NBHARATH1306</text>
<circle cx="400" cy="225" r="547.035" class="orbit" />
<circle cx="259.65512142640284" cy="-303.7254545443809" r="18.155" fill="#e34c26" class="planet" />
<text x="274.65512142640284" y="-298.7254545443809" class="text" fill="white">WEBSITE-EQUDATOR-TRADING-PLATFORM</text>
<circle cx="400" cy="225" r="577.8675" class="orbit" />
<circle cx="416.6146639389515" cy="802.6286008314041" r="10.555" fill="#8b949e" class="planet" />
<text x="431.6146639389515" y="807.6286008314041" class="text" fill="white">FLASK</text>
<circle cx="400" cy="225" r="608.1405" class="orbit" />
<circle cx="-184.0277967815066" cy="55.45236561134422" r="10.182" fill="#8b949e" class="planet" />
<text x="-169.0277967815066" y="60.45236561134422" class="text" fill="white">HCF-INTERNSHIP</text>
<circle cx="400" cy="225" r="637.0095" class="orbit" />
<circle cx="260.1635408729269" cy="846.4715341743758" r="9.246" fill="#8b949e" class="planet" />

    <text x="400" y="40" text-anchor="middle" class="title">SYSTEM SINGULARITY</text>
    </svg>