<svg width="800" height="450" xmlns="http://www.w3.org/2000/svg">
    <style>
        .orbit { fill: none; stroke: #30363d; stroke-width: 1; opacity: 0.5; }
        .planet { filter: drop-shadow(0 0 5px rgba(255,255,255,0.3)); }
        .text { font-family: 'Courier New', monospace; fill: #8b949e; font-size: 10px; }
        .title { font-family: sans-serif; fill: white; font-weight: bold; font-size: 24px; letter-spacing: 4px; }
        .hud-line { stroke: #00ffff; stroke-width: 1; opacity: 0.3; }
        
        /* ANIMATIONS */
        @keyframes pulse { 0% { r: 25; opacity: 0.8; } 50% { r: 30; opacity: 0.4; } 100% { r: 25; opacity: 0.8; } }
        .sun { animation: pulse 4s infinite; }
    </style>
    
    <rect width="100%" height="100%" fill="#0d1117" />
    
    <line x1="50" y1="50" x2="50" y2="400" class="hud-line" />
    <line x1="50" y1="400" x2="750" y2="400" class="hud-line" />
    <text x="60" y="390" class="text">SYS_TIME: 2026.01.29 :: 0111</text>
    <text x="60" y="375" class="text">SECTOR: N_BHARATH_PRIME</text>
    
    <circle cx="400" cy="225" r="25" fill="url(#grad1)" class="sun" />
    <defs>
        <radialGradient id="grad1" cx="50%" cy="50%" r="50%" fx="50%" fy="50%">
            <stop offset="0%" style="stop-color:white;stop-opacity:1" />
            <stop offset="100%" style="stop-color:#00ffff;stop-opacity:1" />
        </radialGradient>
    </defs>
    <circle cx="400" cy="225" r="150.0" class="orbit" />
<circle cx="535.272351499237" cy="289.8181372755102" r="50" fill="#f1e05a" class="planet" />
<text x="550.272351499237" y="294.8181372755102" class="text" fill="white">REDSHIFT</text>
<circle cx="400" cy="225" r="240.0" class="orbit" />
<circle cx="457.3060507484574" cy="-8.057968213093346" r="50" fill="#e34c26" class="planet" />
<text x="472.3060507484574" y="-3.0579682130933463" class="text" fill="white">CIRCLE-13</text>
<circle cx="400" cy="225" r="330.0" class="orbit" />
<circle cx="151.52987509798197" cy="442.16951220458077" r="50" fill="#e34c26" class="planet" />
<text x="166.52987509798197" y="447.16951220458077" class="text" fill="white">ALVRYN-AI</text>
<circle cx="400" cy="225" r="415.422" class="orbit" />
<circle cx="799.6352657136279" cy="338.4332071397001" r="46.948" fill="#f1e05a" class="planet" />
<text x="814.6352657136279" y="343.4332071397001" class="text" fill="white">DRIFT-CIRCLE13</text>
<circle cx="400" cy="225" r="461.8095" class="orbit" />
<circle cx="729.0239141630077" cy="-99.05443709214" r="20.925" fill="#2b7489" class="planet" />
<text x="744.0239141630077" y="-94.05443709214" class="text" fill="white">DSATM-EXAM-SYSTEM-</text>
<circle cx="400" cy="225" r="504.798" class="orbit" />
<circle cx="761.9734004595579" cy="-126.84695275608766" r="18.659" fill="#8b949e" class="planet" />
<text x="776.9734004595579" y="-121.84695275608766" class="text" fill="white">NBHARATH1306</text>
<circle cx="400" cy="225" r="547.0305" class="orbit" />
<circle cx="1.337195971702954" cy="599.580213858855" r="18.155" fill="#e34c26" class="planet" />
<text x="16.337195971702954" y="604.580213858855" class="text" fill="white">WEBSITE-EQUDATOR-TRADING-PLATFORM</text>
<circle cx="400" cy="225" r="577.8629999999999" class="orbit" />
<circle cx="818.0471751245063" cy="623.9513831777253" r="10.555" fill="#8b949e" class="planet" />
<text x="833.0471751245063" y="628.9513831777253" class="text" fill="white">FLASK</text>
<circle cx="400" cy="225" r="608.136" class="orbit" />
<circle cx="182.82595493588718" cy="-343.0359395729206" r="10.182" fill="#8b949e" class="planet" />
<text x="197.82595493588718" y="-338.0359395729206" class="text" fill="white">HCF-INTERNSHIP</text>
<circle cx="400" cy="225" r="637.005" class="orbit" />
<circle cx="842.46625500169" cy="683.2564600851574" r="9.246" fill="#8b949e" class="planet" />

    <text x="400" y="40" text-anchor="middle" class="title">SYSTEM SINGULARITY</text>
    </svg>