<svg width="800" height="450" xmlns="http://www.w3.org/2000/svg">
    <style>
        .orbit { fill: none; stroke: #30363d; stroke-width: 1; opacity: 0.5; }
        .planet { filter: drop-shadow(0 0 5px rgba(255,255,255,0.3)); }
        .text { font-family: 'Courier New', monospace; fill: #8b949e; font-size: 10px; }
        .title { font-family: sans-serif; fill: white; font-weight: bold; font-size: 24px; letter-spacing: 4px; }
        .hud-line { stroke: #00ffff; stroke-width: 1; opacity: 0.3; }
        
        /* ANIMATIONS */
        @keyframes pulse { 0% { r: 25; opacity: 0.8; } 50% { r: 30; opacity: 0.4; } 100% { r: 25; opacity: 0.8; } }
        .sun { animation: pulse 4s infinite; }
    </style>
    
    <rect width="100%" height="100%" fill="#0d1117" />
    
    <line x1="50" y1="50" x2="50" y2="400" class="hud-line" />
    <line x1="50" y1="400" x2="750" y2="400" class="hud-line" />
    <text x="60" y="390" class="text">SYS_TIME: 2026.01.26 :: 0106</text>
    <text x="60" y="375" class="text">SECTOR: N_BHARATH_PRIME</text>
    
    <circle cx="400" cy="225" r="25" fill="url(#grad1)" class="sun" />
    <defs>
        <radialGradient id="grad1" cx="50%" cy="50%" r="50%" fx="50%" fy="50%">
            <stop offset="0%" style="stop-color:white;stop-opacity:1" />
            <stop offset="100%" style="stop-color:#00ffff;stop-opacity:1" />
        </radialGradient>
    </defs>
    <circle cx="400" cy="225" r="150.0" class="orbit" />
<circle cx="283.34677065966173" cy="130.7024704222298" r="50" fill="#f1e05a" class="planet" />
<text x="298.34677065966173" y="135.7024704222298" class="text" fill="white">REDSHIFT</text>
<circle cx="400" cy="225" r="240.0" class="orbit" />
<circle cx="270.49329866036527" cy="22.94056738640819" r="50" fill="#e34c26" class="planet" />
<text x="285.49329866036527" y="27.94056738640819" class="text" fill="white">CIRCLE-13</text>
<circle cx="400" cy="225" r="330.0" class="orbit" />
<circle cx="440.6434703490525" cy="-102.48756971522704" r="50" fill="#e34c26" class="planet" />
<text x="455.6434703490525" y="-97.48756971522704" class="text" fill="white">ALVRYN-AI</text>
<circle cx="400" cy="225" r="376.3875" class="orbit" />
<circle cx="469.7528587409528" cy="594.867663974177" r="20.925" fill="#2b7489" class="planet" />
<text x="484.7528587409528" y="599.867663974177" class="text" fill="white">DSATM-EXAM-SYSTEM-</text>
<circle cx="400" cy="225" r="419.37" class="orbit" />
<circle cx="271.90239984622895" cy="-174.32718632074705" r="18.655" fill="#8b949e" class="planet" />
<text x="286.90239984622895" y="-169.32718632074705" class="text" fill="white">NBHARATH1306</text>
<circle cx="400" cy="225" r="461.6025" class="orbit" />
<circle cx="-28.125039283800277" cy="397.5856852247442" r="18.155" fill="#e34c26" class="planet" />
<text x="-13.125039283800277" y="402.5856852247442" class="text" fill="white">WEBSITE-EQUDATOR-TRADING-PLATFORM</text>
<circle cx="400" cy="225" r="492.435" class="orbit" />
<circle cx="750.4078544920028" cy="-120.98636495577591" r="10.555" fill="#8b949e" class="planet" />
<text x="765.4078544920028" y="-115.98636495577591" class="text" fill="white">FLASK</text>
<circle cx="400" cy="225" r="522.708" class="orbit" />
<circle cx="-121.43033045680488" cy="261.52483735360306" r="10.182" fill="#8b949e" class="planet" />
<text x="-106.43033045680488" y="266.52483735360306" class="text" fill="white">HCF-INTERNSHIP</text>
<circle cx="400" cy="225" r="551.577" class="orbit" />
<circle cx="-103.8176109501797" cy="449.51058288074825" r="9.246" fill="#8b949e" class="planet" />
<circle cx="400" cy="225" r="574.077" class="orbit" />
<circle cx="531.0440987347201" cy="783.9202502287826" r="5" fill="#8b949e" class="planet" />

    <text x="400" y="40" text-anchor="middle" class="title">SYSTEM SINGULARITY</text>
    </svg>