<svg width="800" height="450" xmlns="http://www.w3.org/2000/svg">
    <style>
        .orbit { fill: none; stroke: #30363d; stroke-width: 1; opacity: 0.5; }
        .planet { filter: drop-shadow(0 0 5px rgba(255,255,255,0.3)); }
        .text { font-family: 'Courier New', monospace; fill: #8b949e; font-size: 10px; }
        .title { font-family: sans-serif; fill: white; font-weight: bold; font-size: 24px; letter-spacing: 4px; }
        .hud-line { stroke: #00ffff; stroke-width: 1; opacity: 0.3; }
        
        /* ANIMATIONS */
        @keyframes pulse { 0% { r: 25; opacity: 0.8; } 50% { r: 30; opacity: 0.4; } 100% { r: 25; opacity: 0.8; } }
        .sun { animation: pulse 4s infinite; }
    </style>
    
    <rect width="100%" height="100%" fill="#0d1117" />
    
    <line x1="50" y1="50" x2="50" y2="400" class="hud-line" />
    <line x1="50" y1="400" x2="750" y2="400" class="hud-line" />
    <text x="60" y="390" class="text">SYS_TIME: 2026.02.01 :: 0122</text>
    <text x="60" y="375" class="text">SECTOR: N_BHARATH_PRIME</text>
    
    <circle cx="400" cy="225" r="25" fill="url(#grad1)" class="sun" />
    <defs>
        <radialGradient id="grad1" cx="50%" cy="50%" r="50%" fx="50%" fy="50%">
            <stop offset="0%" style="stop-color:white;stop-opacity:1" />
            <stop offset="100%" style="stop-color:#00ffff;stop-opacity:1" />
        </radialGradient>
    </defs>
    <circle cx="400" cy="225" r="150.0" class="orbit" />
<circle cx="288.8072018991118" cy="325.6785063978162" r="50" fill="#f1e05a" class="planet" />
<text x="303.8072018991118" y="330.6785063978162" class="text" fill="white">REDSHIFT</text>
<circle cx="400" cy="225" r="240.0" class="orbit" />
<circle cx="369.870950642456" cy="463.10132377794685" r="50" fill="#e34c26" class="planet" />
<text x="384.870950642456" y="468.10132377794685" class="text" fill="white">CIRCLE-13</text>
<circle cx="400" cy="225" r="330.0" class="orbit" />
<circle cx="282.44902147489597" cy="533.3533159344821" r="50" fill="#e34c26" class="planet" />
<text x="297.44902147489597" y="538.3533159344821" class="text" fill="white">ALVRYN-AI</text>
<circle cx="400" cy="225" r="415.422" class="orbit" />
<circle cx="694.4231434135927" cy="-68.07072645772564" r="46.948" fill="#f1e05a" class="planet" />
<text x="709.4231434135927" y="-63.07072645772564" class="text" fill="white">DRIFT-CIRCLE13</text>
<circle cx="400" cy="225" r="461.8095" class="orbit" />
<circle cx="-38.59211504047022" cy="80.41448580657553" r="20.925" fill="#2b7489" class="planet" />
<text x="-23.59211504047022" y="85.41448580657553" class="text" fill="white">DSATM-EXAM-SYSTEM-</text>
<circle cx="400" cy="225" r="504.80400000000003" class="orbit" />
<circle cx="581.982794498831" cy="-245.86021378153862" r="18.663" fill="#8b949e" class="planet" />
<text x="596.982794498831" y="-240.86021378153862" class="text" fill="white">NBHARATH1306</text>
<circle cx="400" cy="225" r="547.0365" class="orbit" />
<circle cx="811.1303020565117" cy="585.8612019366609" r="18.155" fill="#e34c26" class="planet" />
<text x="826.1303020565117" y="590.8612019366609" class="text" fill="white">WEBSITE-EQUDATOR-TRADING-PLATFORM</text>
<circle cx="400" cy="225" r="577.869" class="orbit" />
<circle cx="862.2278949709589" cy="571.8111218973755" r="10.555" fill="#8b949e" class="planet" />
<text x="877.2278949709589" y="576.8111218973755" class="text" fill="white">FLASK</text>
<circle cx="400" cy="225" r="608.142" class="orbit" />
<circle cx="248.0278575645667" cy="-363.84731474940463" r="10.182" fill="#8b949e" class="planet" />
<text x="263.0278575645667" y="-358.84731474940463" class="text" fill="white">HCF-INTERNSHIP</text>
<circle cx="400" cy="225" r="637.0110000000001" class="orbit" />
<circle cx="77.93512771944143" cy="774.5973363872023" r="9.246" fill="#8b949e" class="planet" />

    <text x="400" y="40" text-anchor="middle" class="title">SYSTEM SINGULARITY</text>
    </svg>