<svg width="800" height="450" xmlns="http://www.w3.org/2000/svg">
    <style>
        .orbit { fill: none; stroke: #30363d; stroke-width: 1; opacity: 0.5; }
        .planet { filter: drop-shadow(0 0 5px rgba(255,255,255,0.3)); }
        .text { font-family: 'Courier New', monospace; fill: #8b949e; font-size: 10px; }
        .title { font-family: sans-serif; fill: white; font-weight: bold; font-size: 24px; letter-spacing: 4px; }
        .hud-line { stroke: #00ffff; stroke-width: 1; opacity: 0.3; }
        
        /* ANIMATIONS */
        @keyframes pulse { 0% { r: 25; opacity: 0.8; } 50% { r: 30; opacity: 0.4; } 100% { r: 25; opacity: 0.8; } }
        .sun { animation: pulse 4s infinite; }
    </style>
    
    <rect width="100%" height="100%" fill="#0d1117" />
    
    <line x1="50" y1="50" x2="50" y2="400" class="hud-line" />
    <line x1="50" y1="400" x2="750" y2="400" class="hud-line" />
    <text x="60" y="390" class="text">SYS_TIME: 2026.01.30 :: 0110</text>
    <text x="60" y="375" class="text">SECTOR: N_BHARATH_PRIME</text>
    
    <circle cx="400" cy="225" r="25" fill="url(#grad1)" class="sun" />
    <defs>
        <radialGradient id="grad1" cx="50%" cy="50%" r="50%" fx="50%" fy="50%">
            <stop offset="0%" style="stop-color:white;stop-opacity:1" />
            <stop offset="100%" style="stop-color:#00ffff;stop-opacity:1" />
        </radialGradient>
    </defs>
    <circle cx="400" cy="225" r="150.0" class="orbit" />
<circle cx="334.3948934219021" cy="359.8924385978562" r="50" fill="#f1e05a" class="planet" />
<text x="349.3948934219021" y="364.8924385978562" class="text" fill="white">REDSHIFT</text>
<circle cx="400" cy="225" r="240.0" class="orbit" />
<circle cx="345.88920306663465" cy="-8.820490238208379" r="50" fill="#e34c26" class="planet" />
<text x="360.88920306663465" y="-3.8204902382083787" class="text" fill="white">CIRCLE-13</text>
<circle cx="400" cy="225" r="330.0" class="orbit" />
<circle cx="729.4854458438883" cy="206.57879002198368" r="50" fill="#e34c26" class="planet" />
<text x="744.4854458438883" y="211.57879002198368" class="text" fill="white">ALVRYN-AI</text>
<circle cx="400" cy="225" r="415.422" class="orbit" />
<circle cx="793.924294037977" cy="93.0943949231823" r="46.948" fill="#f1e05a" class="planet" />
<text x="808.924294037977" y="98.0943949231823" class="text" fill="white">DRIFT-CIRCLE13</text>
<circle cx="400" cy="225" r="461.8095" class="orbit" />
<circle cx="511.83632500572537" cy="673.0632217661519" r="20.925" fill="#2b7489" class="planet" />
<text x="526.8363250057254" y="678.0632217661519" class="text" fill="white">DSATM-EXAM-SYSTEM-</text>
<circle cx="400" cy="225" r="504.7995" class="orbit" />
<circle cx="488.72368378893657" cy="-271.9412874124778" r="18.66" fill="#8b949e" class="planet" />
<text x="503.72368378893657" y="-266.9412874124778" class="text" fill="white">NBHARATH1306</text>
<circle cx="400" cy="225" r="547.032" class="orbit" />
<circle cx="81.26343466824437" cy="-219.57958898774865" r="18.155" fill="#e34c26" class="planet" />
<text x="96.26343466824437" y="-214.57958898774865" class="text" fill="white">WEBSITE-EQUDATOR-TRADING-PLATFORM</text>
<circle cx="400" cy="225" r="577.8645" class="orbit" />
<circle cx="893.6522555066203" cy="-75.39113001797591" r="10.555" fill="#8b949e" class="planet" />
<text x="908.6522555066203" y="-70.39113001797591" class="text" fill="white">FLASK</text>
<circle cx="400" cy="225" r="608.1375" class="orbit" />
<circle cx="216.45073648404275" cy="-354.77658349488365" r="10.182" fill="#8b949e" class="planet" />
<text x="231.45073648404275" y="-349.77658349488365" class="text" fill="white">HCF-INTERNSHIP</text>
<circle cx="400" cy="225" r="637.0065000000001" class="orbit" />
<circle cx="-233.88791248148254" cy="287.9555037476345" r="9.246" fill="#8b949e" class="planet" />

    <text x="400" y="40" text-anchor="middle" class="title">SYSTEM SINGULARITY</text>
    </svg>