<svg width="800" height="450" xmlns="http://www.w3.org/2000/svg">
    <style>
        .orbit { fill: none; stroke: #30363d; stroke-width: 1; opacity: 0.5; }
        .planet { filter: drop-shadow(0 0 5px rgba(255,255,255,0.3)); }
        .text { font-family: 'Courier New', monospace; fill: #8b949e; font-size: 10px; }
        .title { font-family: sans-serif; fill: white; font-weight: bold; font-size: 24px; letter-spacing: 4px; }
        .hud-line { stroke: #00ffff; stroke-width: 1; opacity: 0.3; }
        
        /* ANIMATIONS */
        @keyframes pulse { 0% { r: 25; opacity: 0.8; } 50% { r: 30; opacity: 0.4; } 100% { r: 25; opacity: 0.8; } }
        .sun { animation: pulse 4s infinite; }
    </style>
    
    <rect width="100%" height="100%" fill="#0d1117" />
    
    <line x1="50" y1="50" x2="50" y2="400" class="hud-line" />
    <line x1="50" y1="400" x2="750" y2="400" class="hud-line" />
    <text x="60" y="390" class="text">SYS_TIME: 2026.01.27 :: 0105</text>
    <text x="60" y="375" class="text">SECTOR: N_BHARATH_PRIME</text>
    
    <circle cx="400" cy="225" r="25" fill="url(#grad1)" class="sun" />
    <defs>
        <radialGradient id="grad1" cx="50%" cy="50%" r="50%" fx="50%" fy="50%">
            <stop offset="0%" style="stop-color:white;stop-opacity:1" />
            <stop offset="100%" style="stop-color:#00ffff;stop-opacity:1" />
        </radialGradient>
    </defs>
    <circle cx="400" cy="225" r="150.0" class="orbit" />
<circle cx="525.5996795853978" cy="142.99560689788984" r="50" fill="#f1e05a" class="planet" />
<text x="540.5996795853978" y="147.99560689788984" class="text" fill="white">REDSHIFT</text>
<circle cx="400" cy="225" r="240.0" class="orbit" />
<circle cx="497.90886624094526" cy="444.12063780350013" r="50" fill="#e34c26" class="planet" />
<text x="512.9088662409453" y="449.12063780350013" class="text" fill="white">CIRCLE-13</text>
<circle cx="400" cy="225" r="330.0" class="orbit" />
<circle cx="461.4959541563018" cy="-99.21944362176373" r="50" fill="#e34c26" class="planet" />
<text x="476.4959541563018" y="-94.21944362176373" class="text" fill="white">ALVRYN-AI</text>
<circle cx="400" cy="225" r="415.422" class="orbit" />
<circle cx="681.022062885814" cy="530.9445019205307" r="46.948" fill="#f1e05a" class="planet" />
<text x="696.022062885814" y="535.9445019205307" class="text" fill="white">DRIFT-CIRCLE13</text>
<circle cx="400" cy="225" r="461.8095" class="orbit" />
<circle cx="758.4060154051581" cy="516.2269603104212" r="20.925" fill="#2b7489" class="planet" />
<text x="773.4060154051581" y="521.2269603104212" class="text" fill="white">DSATM-EXAM-SYSTEM-</text>
<circle cx="400" cy="225" r="504.795" class="orbit" />
<circle cx="827.721541965662" cy="493.09004935565287" r="18.657" fill="#8b949e" class="planet" />
<text x="842.721541965662" y="498.09004935565287" class="text" fill="white">NBHARATH1306</text>
<circle cx="400" cy="225" r="547.0275" class="orbit" />
<circle cx="945.2361669961169" cy="269.2335614170109" r="18.155" fill="#e34c26" class="planet" />
<text x="960.2361669961169" y="274.2335614170109" class="text" fill="white">WEBSITE-EQUDATOR-TRADING-PLATFORM</text>
<circle cx="400" cy="225" r="577.86" class="orbit" />
<circle cx="-169.5578259607496" cy="322.60154961302896" r="10.555" fill="#8b949e" class="planet" />
<text x="-154.5578259607496" y="327.60154961302896" class="text" fill="white">FLASK</text>
<circle cx="400" cy="225" r="608.133" class="orbit" />
<circle cx="669.1062919984472" cy="770.3508497250614" r="10.182" fill="#8b949e" class="planet" />
<text x="684.1062919984472" y="775.3508497250614" class="text" fill="white">HCF-INTERNSHIP</text>
<circle cx="400" cy="225" r="637.0020000000001" class="orbit" />
<circle cx="579.3504209876739" cy="836.2323408455611" r="9.246" fill="#8b949e" class="planet" />

    <text x="400" y="40" text-anchor="middle" class="title">SYSTEM SINGULARITY</text>
    </svg>