<svg width="800" height="450" xmlns="http://www.w3.org/2000/svg">
    <style>
        .orbit { fill: none; stroke: #30363d; stroke-width: 1; opacity: 0.5; }
        .planet { filter: drop-shadow(0 0 5px rgba(255,255,255,0.3)); }
        .text { font-family: 'Courier New', monospace; fill: #8b949e; font-size: 10px; }
        .title { font-family: sans-serif; fill: white; font-weight: bold; font-size: 24px; letter-spacing: 4px; }
        .hud-line { stroke: #00ffff; stroke-width: 1; opacity: 0.3; }
        
        /* ANIMATIONS */
        @keyframes pulse { 0% { r: 25; opacity: 0.8; } 50% { r: 30; opacity: 0.4; } 100% { r: 25; opacity: 0.8; } }
        .sun { animation: pulse 4s infinite; }
    </style>
    
    <rect width="100%" height="100%" fill="#0d1117" />
    
    <line x1="50" y1="50" x2="50" y2="400" class="hud-line" />
    <line x1="50" y1="400" x2="750" y2="400" class="hud-line" />
    <text x="60" y="390" class="text">SYS_TIME: 2026.01.24 :: 0059</text>
    <text x="60" y="375" class="text">SECTOR: N_BHARATH_PRIME</text>
    
    <circle cx="400" cy="225" r="25" fill="url(#grad1)" class="sun" />
    <defs>
        <radialGradient id="grad1" cx="50%" cy="50%" r="50%" fx="50%" fy="50%">
            <stop offset="0%" style="stop-color:white;stop-opacity:1" />
            <stop offset="100%" style="stop-color:#00ffff;stop-opacity:1" />
        </radialGradient>
    </defs>
    <circle cx="400" cy="225" r="150.0" class="orbit" />
<circle cx="300.98879595096173" cy="337.67999588551515" r="50" fill="#f1e05a" class="planet" />
<text x="315.98879595096173" y="342.67999588551515" class="text" fill="white">REDSHIFT</text>
<circle cx="400" cy="225" r="240.0" class="orbit" />
<circle cx="516.3627166755077" cy="15.09593103540007" r="50" fill="#e34c26" class="planet" />
<text x="531.3627166755077" y="20.09593103540007" class="text" fill="white">CIRCLE-13</text>
<circle cx="400" cy="225" r="330.0" class="orbit" />
<circle cx="690.9132104342307" cy="380.78672599053186" r="50" fill="#e34c26" class="planet" />
<text x="705.9132104342307" y="385.78672599053186" class="text" fill="white">ALVRYN-AI</text>
<circle cx="400" cy="225" r="376.3875" class="orbit" />
<circle cx="685.6471699984355" cy="470.0984382409134" r="20.925" fill="#2b7489" class="planet" />
<text x="700.6471699984355" y="475.0984382409134" class="text" fill="white">DSATM-EXAM-SYSTEM-</text>
<circle cx="400" cy="225" r="419.3655" class="orbit" />
<circle cx="-19.345827386152394" cy="220.93802460946742" r="18.652" fill="#8b949e" class="planet" />
<text x="-4.3458273861523935" y="225.93802460946742" class="text" fill="white">NBHARATH1306</text>
<circle cx="400" cy="225" r="461.598" class="orbit" />
<circle cx="361.56677646030545" cy="684.9952183798739" r="18.155" fill="#e34c26" class="planet" />
<text x="376.56677646030545" y="689.9952183798739" class="text" fill="white">WEBSITE-EQUDATOR-TRADING-PLATFORM</text>
<circle cx="400" cy="225" r="492.4305" class="orbit" />
<circle cx="891.9825352872566" cy="204.00042137153054" r="10.555" fill="#8b949e" class="planet" />
<text x="906.9825352872566" y="209.00042137153054" class="text" fill="white">FLASK</text>
<circle cx="400" cy="225" r="522.7035" class="orbit" />
<circle cx="-89.49548660765902" cy="41.66119477049861" r="10.182" fill="#8b949e" class="planet" />
<text x="-74.49548660765902" y="46.66119477049861" class="text" fill="white">HCF-INTERNSHIP</text>
<circle cx="400" cy="225" r="551.5725" class="orbit" />
<circle cx="944.2524009509694" cy="135.4369115351912" r="9.246" fill="#8b949e" class="planet" />
<circle cx="400" cy="225" r="574.0725" class="orbit" />
<circle cx="-152.09654097953694" cy="382.31701972348856" r="5" fill="#2b7489" class="planet" />

    <text x="400" y="40" text-anchor="middle" class="title">SYSTEM SINGULARITY</text>
    </svg>