<svg width="800" height="450" xmlns="http://www.w3.org/2000/svg">
    <style>
        .orbit { fill: none; stroke: #30363d; stroke-width: 1; opacity: 0.5; }
        .planet { filter: drop-shadow(0 0 5px rgba(255,255,255,0.3)); }
        .text { font-family: 'Courier New', monospace; fill: #8b949e; font-size: 10px; }
        .title { font-family: sans-serif; fill: white; font-weight: bold; font-size: 24px; letter-spacing: 4px; }
        .hud-line { stroke: #00ffff; stroke-width: 1; opacity: 0.3; }
        
        /* ANIMATIONS */
        @keyframes pulse { 0% { r: 25; opacity: 0.8; } 50% { r: 30; opacity: 0.4; } 100% { r: 25; opacity: 0.8; } }
        .sun { animation: pulse 4s infinite; }
    </style>
    
    <rect width="100%" height="100%" fill="#0d1117" />
    
    <line x1="50" y1="50" x2="50" y2="400" class="hud-line" />
    <line x1="50" y1="400" x2="750" y2="400" class="hud-line" />
    <text x="60" y="390" class="text">SYS_TIME: 2026.01.23 :: 0102</text>
    <text x="60" y="375" class="text">SECTOR: N_BHARATH_PRIME</text>
    
    <circle cx="400" cy="225" r="25" fill="url(#grad1)" class="sun" />
    <defs>
        <radialGradient id="grad1" cx="50%" cy="50%" r="50%" fx="50%" fy="50%">
            <stop offset="0%" style="stop-color:white;stop-opacity:1" />
            <stop offset="100%" style="stop-color:#00ffff;stop-opacity:1" />
        </radialGradient>
    </defs>
    <circle cx="400" cy="225" r="150.0" class="orbit" />
<circle cx="427.068818465503" cy="372.5373819304167" r="50" fill="#f1e05a" class="planet" />
<text x="442.068818465503" y="377.5373819304167" class="text" fill="white">REDSHIFT</text>
<circle cx="400" cy="225" r="240.0" class="orbit" />
<circle cx="459.8931811678429" cy="-7.4065550917098335" r="50" fill="#e34c26" class="planet" />
<text x="474.8931811678429" y="-2.4065550917098335" class="text" fill="white">CIRCLE-13</text>
<circle cx="400" cy="225" r="330.0" class="orbit" />
<circle cx="729.086296488464" cy="249.53995646913006" r="50" fill="#e34c26" class="planet" />
<text x="744.086296488464" y="254.53995646913006" class="text" fill="white">ALVRYN-AI</text>
<circle cx="400" cy="225" r="376.3875" class="orbit" />
<circle cx="617.1532211784216" cy="532.4280870188758" r="20.925" fill="#2b7489" class="planet" />
<text x="632.1532211784216" y="537.4280870188758" class="text" fill="white">DSATM-EXAM-SYSTEM-</text>
<circle cx="400" cy="225" r="419.364" class="orbit" />
<circle cx="251.129898149512" cy="617.050835059722" r="18.651" fill="#8b949e" class="planet" />
<text x="266.129898149512" y="622.050835059722" class="text" fill="white">NBHARATH1306</text>
<circle cx="400" cy="225" r="461.5965" class="orbit" />
<circle cx="36.12258790135883" cy="509.01506610855284" r="18.155" fill="#e34c26" class="planet" />
<text x="51.12258790135883" y="514.0150661085529" class="text" fill="white">WEBSITE-EQUDATOR-TRADING-PLATFORM</text>
<circle cx="400" cy="225" r="492.429" class="orbit" />
<circle cx="-90.46971385031998" cy="268.8837080997635" r="10.555" fill="#8b949e" class="planet" />
<text x="-75.46971385031998" y="273.8837080997635" class="text" fill="white">FLASK</text>
<circle cx="400" cy="225" r="522.702" class="orbit" />
<circle cx="710.5556745482171" cy="-195.44328251251903" r="10.182" fill="#8b949e" class="planet" />
<text x="725.5556745482171" y="-190.44328251251903" class="text" fill="white">HCF-INTERNSHIP</text>
<circle cx="400" cy="225" r="551.571" class="orbit" />
<circle cx="-44.56887960100215" cy="-101.479829899658" r="9.246" fill="#8b949e" class="planet" />
<circle cx="400" cy="225" r="574.071" class="orbit" />
<circle cx="-118.68876061133994" cy="-21.007078468226496" r="5" fill="#2b7489" class="planet" />

    <text x="400" y="40" text-anchor="middle" class="title">SYSTEM SINGULARITY</text>
    </svg>