<svg width="800" height="450" xmlns="http://www.w3.org/2000/svg">
    <style>
        .orbit { fill: none; stroke: #30363d; stroke-width: 1; opacity: 0.5; }
        .planet { filter: drop-shadow(0 0 5px rgba(255,255,255,0.3)); }
        .text { font-family: 'Courier New', monospace; fill: #8b949e; font-size: 10px; }
        .title { font-family: sans-serif; fill: white; font-weight: bold; font-size: 24px; letter-spacing: 4px; }
        .hud-line { stroke: #00ffff; stroke-width: 1; opacity: 0.3; }
        
        /* ANIMATIONS */
        @keyframes pulse { 0% { r: 25; opacity: 0.8; } 50% { r: 30; opacity: 0.4; } 100% { r: 25; opacity: 0.8; } }
        .sun { animation: pulse 4s infinite; }
    </style>
    
    <rect width="100%" height="100%" fill="#0d1117" />
    
    <line x1="50" y1="50" x2="50" y2="400" class="hud-line" />
    <line x1="50" y1="400" x2="750" y2="400" class="hud-line" />
    <text x="60" y="390" class="text">SYS_TIME: 2026.01.28 :: 0101</text>
    <text x="60" y="375" class="text">SECTOR: N_BHARATH_PRIME</text>
    
    <circle cx="400" cy="225" r="25" fill="url(#grad1)" class="sun" />
    <defs>
        <radialGradient id="grad1" cx="50%" cy="50%" r="50%" fx="50%" fy="50%">
            <stop offset="0%" style="stop-color:white;stop-opacity:1" />
            <stop offset="100%" style="stop-color:#00ffff;stop-opacity:1" />
        </radialGradient>
    </defs>
    <circle cx="400" cy="225" r="150.0" class="orbit" />
<circle cx="456.430662080649" cy="363.98050358643695" r="50" fill="#f1e05a" class="planet" />
<text x="471.430662080649" y="368.98050358643695" class="text" fill="white">REDSHIFT</text>
<circle cx="400" cy="225" r="240.0" class="orbit" />
<circle cx="184.45225311450997" cy="119.45773921035838" r="50" fill="#e34c26" class="planet" />
<text x="199.45225311450997" y="124.45773921035838" class="text" fill="white">CIRCLE-13</text>
<circle cx="400" cy="225" r="330.0" class="orbit" />
<circle cx="260.41837943269525" cy="524.0267064992773" r="50" fill="#e34c26" class="planet" />
<text x="275.41837943269525" y="529.0267064992773" class="text" fill="white">ALVRYN-AI</text>
<circle cx="400" cy="225" r="415.422" class="orbit" />
<circle cx="812.9443574181373" cy="270.3033747144929" r="46.948" fill="#f1e05a" class="planet" />
<text x="827.9443574181373" y="275.3033747144929" class="text" fill="white">DRIFT-CIRCLE13</text>
<circle cx="400" cy="225" r="461.8095" class="orbit" />
<circle cx="856.3286792539529" cy="295.9376541802228" r="20.925" fill="#2b7489" class="planet" />
<text x="871.3286792539529" y="300.9376541802228" class="text" fill="white">DSATM-EXAM-SYSTEM-</text>
<circle cx="400" cy="225" r="504.79650000000004" class="orbit" />
<circle cx="-101.88609553761648" cy="170.8718786742366" r="18.658" fill="#8b949e" class="planet" />
<text x="-86.88609553761648" y="175.8718786742366" class="text" fill="white">NBHARATH1306</text>
<circle cx="400" cy="225" r="547.029" class="orbit" />
<circle cx="855.9891475526894" cy="527.1830970705868" r="18.155" fill="#e34c26" class="planet" />
<text x="870.9891475526894" y="532.1830970705868" class="text" fill="white">WEBSITE-EQUDATOR-TRADING-PLATFORM</text>
<circle cx="400" cy="225" r="577.8615" class="orbit" />
<circle cx="648.5705419507918" cy="-296.66713415408833" r="10.555" fill="#8b949e" class="planet" />
<text x="663.5705419507918" y="-291.66713415408833" class="text" fill="white">FLASK</text>
<circle cx="400" cy="225" r="608.1345" class="orbit" />
<circle cx="1007.8892731864486" cy="242.2685157179562" r="10.182" fill="#8b949e" class="planet" />
<text x="1022.8892731864486" y="247.2685157179562" class="text" fill="white">HCF-INTERNSHIP</text>
<circle cx="400" cy="225" r="637.0035" class="orbit" />
<circle cx="562.0787847103368" cy="841.0389001995494" r="9.246" fill="#8b949e" class="planet" />

    <text x="400" y="40" text-anchor="middle" class="title">SYSTEM SINGULARITY</text>
    </svg>